<svg xmlns="http://www.w3.org/2000/svg" xmlns:xlink="http://www.w3.org/1999/xlink" viewBox="0 0 320 99.61"><defs><style>.cls-1{fill:url(#linear-gradient);}.cls-2{fill:url(#linear-gradient-2);}.cls-3{fill:url(#linear-gradient-3);}.cls-4{fill:url(#linear-gradient-4);}.cls-5{fill:none;stroke-miterlimit:10;stroke-width:3px;stroke:url(#linear-gradient-5);}.cls-10,.cls-6{font-size:48px;font-family:Raleway-Bold, Raleway;font-weight:700;letter-spacing:-0.04em;}.cls-6{fill:#020202;}.cls-7{letter-spacing:-0.05em;}.cls-8{letter-spacing:-0.05em;}.cls-9{letter-spacing:-0.04em;}</style><linearGradient id="linear-gradient" x1="7.99" y1="49.16" x2="106.31" y2="49.16" gradientUnits="userSpaceOnUse"><stop offset="0" stop-color="#d4145a"/><stop offset="1" stop-color="#f15a24"/></linearGradient><linearGradient id="linear-gradient-2" x1="55.9" y1="49.13" x2="58.93" y2="49.13" xlink:href="#linear-gradient"/><linearGradient id="linear-gradient-3" x1="23.11" y1="49.16" x2="91.19" y2="49.16" xlink:href="#linear-gradient"/><linearGradient id="linear-gradient-4" x1="38.24" y1="49.16" x2="76.06" y2="49.16" xlink:href="#linear-gradient"/><linearGradient id="linear-gradient-5" y1="46.95" x2="320" y2="46.95" gradientUnits="userSpaceOnUse"><stop offset="0" stop-color="#fff" stop-opacity="0"/><stop offset="0.08"/><stop offset="0.92"/><stop offset="1" stop-opacity="0"/></linearGradient></defs><title>Asset 1</title><g id="Layer_2" data-name="Layer 2"><g id="Layer_1-2" data-name="Layer 1"><path class="cls-1" d="M106.31,49.16A49.16,49.16,0,1,1,57.15,0,49.16,49.16,0,0,1,106.31,49.16Zm-49-45.62A45.74,45.74,0,1,0,103,49.28,45.73,45.73,0,0,0,57.27,3.55Z"/><circle class="cls-2" cx="57.41" cy="49.13" r="1.51"/><path class="cls-3" d="M91.19,49.16a34,34,0,1,1-34-34A34,34,0,0,1,91.19,49.16Zm-34-31.58A31.66,31.66,0,1,0,88.89,49.24,31.66,31.66,0,0,0,57.23,17.58Z"/><path class="cls-4" d="M76.06,49.16A18.91,18.91,0,1,1,57.15,30.25,18.91,18.91,0,0,1,76.06,49.16ZM57.2,31.62A17.59,17.59,0,1,0,74.79,49.21,17.59,17.59,0,0,0,57.2,31.62Z"/><polyline class="cls-5" points="0 49.5 30.9 49.5 37.06 34.5 54.5 82.5 71.5 11.5 84.5 48.5 320 48.5"/><text class="cls-6" transform="translate(108 41.2)">G<tspan class="cls-7" x="32.21" y="0">r</tspan><tspan x="48.58" y="0">adu</tspan><tspan class="cls-8" x="131.85" y="0">a</tspan><tspan class="cls-9" x="157.34" y="0">te</tspan></text><text class="cls-10" transform="translate(111 88.61)">Pulse</text></g></g></svg>